<svg data-v-fde0c5aa="" xmlns="http://www.w3.org/2000/svg" viewBox="0 0 300 300" class="iconLeft"><!----><defs data-v-fde0c5aa=""><!----></defs><rect data-v-fde0c5aa="" fill="transparent" x="0" y="0" width="300px" height="300px" class="logo-background-square"></rect><defs data-v-fde0c5aa=""><!----></defs><g data-v-fde0c5aa="" id="fb396cf2-9eda-4f6f-8fa9-e40214223c00" fill="#000000" transform="matrix(2.7801365852355957,0,0,2.7801365852355957,108.12112645792622,123.92231832625532)"><path d="M1.89 2.80L1.89 11.33L1.89 11.33Q1.89 11.97 2.09 12.24L2.09 12.24L2.09 12.24Q2.30 12.50 2.77 12.50L2.77 12.50L2.77 12.50Q3.05 12.50 3.25 12.46L3.25 12.46L3.25 12.46Q3.44 12.42 3.70 12.31L3.70 12.31L3.60 12.98L3.60 12.98Q3.21 13.16 2.67 13.16L2.67 13.16L2.67 13.16Q1.92 13.16 1.55 12.73L1.55 12.73L1.55 12.73Q1.19 12.31 1.19 11.40L1.19 11.40L1.19 2.80L1.89 2.80ZM10.85 9.35L10.85 9.35Q10.85 9.59 10.82 9.81L10.82 9.81L5.26 9.81L5.26 9.81Q5.33 11.10 6.03 11.82L6.03 11.82L6.03 11.82Q6.72 12.54 7.88 12.54L7.88 12.54L7.88 12.54Q8.71 12.54 9.30 12.21L9.30 12.21L9.30 12.21Q9.90 11.87 10.16 11.26L10.16 11.26L10.75 11.56L10.75 11.56Q10.36 12.33 9.63 12.75L9.63 12.75L9.63 12.75Q8.90 13.16 7.88 13.16L7.88 13.16L7.88 13.16Q6.33 13.16 5.45 12.19L5.45 12.19L5.45 12.19Q4.58 11.23 4.58 9.52L4.58 9.52L4.58 9.52Q4.58 7.81 5.43 6.85L5.43 6.85L5.43 6.85Q6.27 5.88 7.80 5.88L7.80 5.88L7.80 5.88Q9.23 5.88 10.04 6.83L10.04 6.83L10.04 6.83Q10.85 7.78 10.85 9.35L10.85 9.35ZM7.80 6.50L7.80 6.50Q6.66 6.50 6.01 7.20L6.01 7.20L6.01 7.20Q5.35 7.91 5.26 9.18L5.26 9.18L10.19 9.18L10.19 9.18Q10.12 7.92 9.50 7.21L9.50 7.21L9.50 7.21Q8.88 6.50 7.80 6.50L7.80 6.50ZM15.13 13.16L15.13 13.16Q14.07 13.16 13.29 12.74L13.29 12.74L13.29 12.74Q12.50 12.32 12.21 11.52L12.21 11.52L12.78 11.14L12.78 11.14Q12.99 11.84 13.64 12.19L13.64 12.19L13.64 12.19Q14.28 12.54 15.22 12.54L15.22 12.54L15.22 12.54Q16.17 12.54 16.71 12.18L16.71 12.18L16.71 12.18Q17.25 11.82 17.25 11.21L17.25 11.21L17.25 11.21Q17.25 10.70 16.79 10.39L16.79 10.39L16.79 10.39Q16.32 10.08 15.16 9.87L15.16 9.87L15.16 9.87Q13.69 9.60 13.09 9.16L13.09 9.16L13.09 9.16Q12.49 8.71 12.49 7.88L12.49 7.88L12.49 7.88Q12.49 7.34 12.82 6.87L12.82 6.87L12.82 6.87Q13.16 6.41 13.78 6.15L13.78 6.15L13.78 6.15Q14.39 5.88 15.18 5.88L15.18 5.88L15.18 5.88Q16.28 5.88 16.95 6.30L16.95 6.30L16.95 6.30Q17.61 6.72 17.86 7.59L17.86 7.59L17.26 7.94L17.26 7.94Q16.87 6.50 15.18 6.50L15.18 6.50L15.18 6.50Q14.62 6.50 14.16 6.68L14.16 6.68L14.16 6.68Q13.71 6.86 13.45 7.16L13.45 7.16L13.45 7.16Q13.19 7.46 13.19 7.81L13.19 7.81L13.19 7.81Q13.19 8.39 13.66 8.71L13.66 8.71L13.66 8.71Q14.14 9.03 15.34 9.24L15.34 9.24L15.34 9.24Q16.77 9.48 17.36 9.93L17.36 9.93L17.36 9.93Q17.95 10.37 17.95 11.19L17.95 11.19L17.95 11.19Q17.95 12.08 17.19 12.62L17.19 12.62L17.19 12.62Q16.42 13.16 15.13 13.16L15.13 13.16ZM22.20 13.16L22.20 13.16Q21.14 13.16 20.36 12.74L20.36 12.74L20.36 12.74Q19.57 12.32 19.28 11.52L19.28 11.52L19.85 11.14L19.85 11.14Q20.06 11.84 20.71 12.19L20.71 12.19L20.71 12.19Q21.35 12.54 22.29 12.54L22.29 12.54L22.29 12.54Q23.24 12.54 23.78 12.18L23.78 12.18L23.78 12.18Q24.32 11.82 24.32 11.21L24.32 11.21L24.32 11.21Q24.32 10.70 23.86 10.39L23.86 10.39L23.86 10.39Q23.39 10.08 22.23 9.87L22.23 9.87L22.23 9.87Q20.76 9.60 20.16 9.16L20.16 9.16L20.16 9.16Q19.56 8.71 19.56 7.88L19.56 7.88L19.56 7.88Q19.56 7.34 19.89 6.87L19.89 6.87L19.89 6.87Q20.23 6.41 20.85 6.15L20.85 6.15L20.85 6.15Q21.46 5.88 22.25 5.88L22.25 5.88L22.25 5.88Q23.35 5.88 24.02 6.30L24.02 6.30L24.02 6.30Q24.68 6.72 24.93 7.59L24.93 7.59L24.33 7.94L24.33 7.94Q23.94 6.50 22.25 6.50L22.25 6.50L22.25 6.50Q21.69 6.50 21.23 6.68L21.23 6.68L21.23 6.68Q20.78 6.86 20.52 7.16L20.52 7.16L20.52 7.16Q20.26 7.46 20.26 7.81L20.26 7.81L20.26 7.81Q20.26 8.39 20.73 8.71L20.73 8.71L20.73 8.71Q21.21 9.03 22.41 9.24L22.41 9.24L22.41 9.24Q23.84 9.48 24.43 9.93L24.43 9.93L24.43 9.93Q25.02 10.37 25.02 11.19L25.02 11.19L25.02 11.19Q25.02 12.08 24.26 12.62L24.26 12.62L24.26 12.62Q23.49 13.16 22.20 13.16L22.20 13.16ZM30.27 5.88L30.27 5.88Q31.75 5.88 32.61 6.85L32.61 6.85L32.61 6.85Q33.47 7.81 33.47 9.52L33.47 9.52L33.47 9.52Q33.47 11.23 32.61 12.19L32.61 12.19L32.61 12.19Q31.75 13.16 30.27 13.16L30.27 13.16L30.27 13.16Q29.37 13.16 28.69 12.73L28.69 12.73L28.69 12.73Q28.01 12.29 27.69 11.54L27.69 11.54L27.69 15.96L26.99 15.96L26.99 6.02L27.62 6.02L27.66 7.60L27.66 7.60Q27.96 6.79 28.64 6.33L28.64 6.33L28.64 6.33Q29.32 5.88 30.27 5.88L30.27 5.88ZM30.18 12.54L30.18 12.54Q31.40 12.54 32.09 11.74L32.09 11.74L32.09 11.74Q32.77 10.93 32.77 9.52L32.77 9.52L32.77 9.52Q32.77 8.11 32.09 7.30L32.09 7.30L32.09 7.30Q31.40 6.50 30.18 6.50L30.18 6.50L30.18 6.50Q29.09 6.50 28.42 7.24L28.42 7.24L28.42 7.24Q27.75 7.98 27.69 9.27L27.69 9.27L27.69 9.77L27.69 9.77Q27.75 11.06 28.42 11.80L28.42 11.80L28.42 11.80Q29.09 12.54 30.18 12.54L30.18 12.54ZM36.16 2.80L36.16 11.33L36.16 11.33Q36.16 11.97 36.37 12.24L36.37 12.24L36.37 12.24Q36.57 12.50 37.04 12.50L37.04 12.50L37.04 12.50Q37.32 12.50 37.52 12.46L37.52 12.46L37.52 12.46Q37.72 12.42 37.97 12.31L37.97 12.31L37.87 12.98L37.87 12.98Q37.48 13.16 36.95 13.16L36.95 13.16L36.95 13.16Q36.19 13.16 35.83 12.73L35.83 12.73L35.83 12.73Q35.46 12.31 35.46 11.40L35.46 11.40L35.46 2.80L36.16 2.80ZM42.18 5.88L42.18 5.88Q43.74 5.88 44.63 6.85L44.63 6.85L44.63 6.85Q45.51 7.83 45.51 9.52L45.51 9.52L45.51 9.52Q45.51 11.21 44.63 12.19L44.63 12.19L44.63 12.19Q43.74 13.16 42.18 13.16L42.18 13.16L42.18 13.16Q40.63 13.16 39.74 12.19L39.74 12.19L39.74 12.19Q38.85 11.21 38.85 9.52L38.85 9.52L38.85 9.52Q38.85 7.83 39.74 6.85L39.74 6.85L39.74 6.85Q40.63 5.88 42.18 5.88L42.18 5.88ZM42.18 6.48L42.18 6.48Q40.95 6.48 40.25 7.29L40.25 7.29L40.25 7.29Q39.55 8.11 39.55 9.52L39.55 9.52L39.55 9.52Q39.55 10.93 40.25 11.75L40.25 11.75L40.25 11.75Q40.95 12.56 42.18 12.56L42.18 12.56L42.18 12.56Q43.41 12.56 44.11 11.75L44.11 11.75L44.11 11.75Q44.81 10.93 44.81 9.52L44.81 9.52L44.81 9.52Q44.81 8.11 44.11 7.29L44.11 7.29L44.11 7.29Q43.41 6.48 42.18 6.48L42.18 6.48ZM47.91 4.66L47.91 4.66Q47.64 4.66 47.48 4.50L47.48 4.50L47.48 4.50Q47.32 4.34 47.32 4.07L47.32 4.07L47.32 4.07Q47.32 3.81 47.48 3.65L47.48 3.65L47.48 3.65Q47.64 3.49 47.91 3.49L47.91 3.49L47.91 3.49Q48.17 3.49 48.34 3.65L48.34 3.65L48.34 3.65Q48.50 3.81 48.50 4.07L48.50 4.07L48.50 4.07Q48.50 4.34 48.34 4.50L48.34 4.50L48.34 4.50Q48.17 4.66 47.91 4.66L47.91 4.66ZM48.26 6.02L48.26 13.02L47.56 13.02L47.56 6.02L48.26 6.02ZM54.38 12.00L54.63 12.57L54.63 12.57Q54.35 12.85 53.94 13.01L53.94 13.01L53.94 13.01Q53.54 13.16 53.05 13.16L53.05 13.16L53.05 13.16Q52.19 13.16 51.71 12.69L51.71 12.69L51.71 12.69Q51.23 12.22 51.23 11.27L51.23 11.27L51.23 6.62L49.83 6.62L49.83 6.02L51.23 6.02L51.23 4.27L51.93 4.07L51.93 6.02L54.56 6.02L54.56 6.62L51.93 6.62L51.93 11.17L51.93 11.17Q51.93 11.83 52.24 12.17L52.24 12.17L52.24 12.17Q52.56 12.52 53.16 12.52L53.16 12.52L53.16 12.52Q53.86 12.52 54.38 12.00L54.38 12.00Z"></path></g><defs data-v-fde0c5aa=""><linearGradient data-v-fde0c5aa="" gradientTransform="rotate(25)" id="9363373e-2a50-4da8-8f6a-d6c3c310a7a5" x1="0%" y1="0%" x2="100%" y2="0%"><stop data-v-fde0c5aa="" offset="0%" stop-color="#E90DCA" stop-opacity="1"></stop><stop data-v-fde0c5aa="" offset="100%" stop-color="#1536F1" stop-opacity="1"></stop></linearGradient></defs><g data-v-fde0c5aa="" id="1ec104d4-9c88-43bc-9e6d-f49ca3d3287b" stroke="none" fill="url(#9363373e-2a50-4da8-8f6a-d6c3c310a7a5)" transform="matrix(1.8259215354919434,0,0,1.8259215354919434,40,120.78525558709943)"><path d="M17.572 23.933l4.106 7.095L32 13.189h-8.981V7.582L11.51.972 0 7.582v13.222l11.51 6.611 6.062-3.482zm10.96-8.744l-6.855 11.846-6.855-11.846h13.71z"></path></g><!----></svg>